<?xml version="1.0" encoding="UTF-8"?>
<!DOCTYPE svg PUBLIC "-//W3C//DTD SVG 1.1//EN" "http://www.w3.org/Graphics/SVG/1.1/DTD/svg11.dtd">
<!-- Creator: CorelDRAW 2017 -->
<svg xmlns="http://www.w3.org/2000/svg" xml:space="preserve" width="960px" height="960px" version="1.1" style="shape-rendering:geometricPrecision; text-rendering:geometricPrecision; image-rendering:optimizeQuality; fill-rule:evenodd; clip-rule:evenodd"
viewBox="0 0 960 960"
 xmlns:xlink="http://www.w3.org/1999/xlink">
 <defs>
  <style type="text/css">
   <![CDATA[
    .fil7 {fill:none}
    .fil2 {fill:#00A28B}
    .fil4 {fill:#00A86D}
    .fil3 {fill:#00AD75}
    .fil6 {fill:#01A5B1}
    .fil1 {fill:#21B24B}
    .fil5 {fill:#4DB748}
    .fil8 {fill:white}
    .fil0 {fill:white}
   ]]>
  </style>
    <clipPath id="id0">
     <path d="M480 30c248.53,0 450,201.47 450,450 0,248.53 -201.47,450 -450,450 -248.53,0 -450,-201.47 -450,-450 0,-248.53 201.47,-450 450,-450z"/>
    </clipPath>
 </defs>
 <g id="Camada_x0020_1">
  <metadata id="CorelCorpID_0Corel-Layer"/>
  <g id="_2576264847408">
   <path class="fil0" d="M480 0c265.1,0 480,214.9 480,480 0,265.1 -214.9,480 -480,480 -265.1,0 -480,-214.9 -480,-480 0,-265.1 214.9,-480 480,-480zm0 30c248.53,0 450,201.47 450,450 0,248.53 -201.47,450 -450,450 -248.53,0 -450,-201.47 -450,-450 0,-248.53 201.47,-450 450,-450z"/>
   <path class="fil1" d="M480 30c248.53,0 450,201.47 450,450 0,248.53 -201.47,450 -450,450 -248.53,0 -450,-201.47 -450,-450 0,-248.53 201.47,-450 450,-450z"/>
   <g style="clip-path:url(#id0)">
    <g>
     <g>
      <polygon id="1" class="fil1" points="-320,371.93 -5.35,422.9 400.76,930 -320,930 "/>
      <polygon class="fil2" points="7.28,30 912.16,30 1280,463.84 1280,631.1 "/>
      <polygon class="fil3" points="-320,30 7.28,30 1280,631.1 -5.35,422.9 "/>
      <polygon class="fil4" points="-320,30 -5.35,422.9 -320,371.93 "/>
      <polygon class="fil5" points="-5.35,422.9 1280,631.1 1280,930 400.76,930 "/>
      <polygon class="fil6" points="912.16,30 1280,30 1280,463.84 "/>
     </g>
    </g>
   </g>
   <path class="fil7" d="M480 30c248.53,0 450,201.47 450,450 0,248.53 -201.47,450 -450,450 -248.53,0 -450,-201.47 -450,-450 0,-248.53 201.47,-450 450,-450z"/>
   <path class="fil8" d="M719.39 398.48l0 0c45.54,0 82.8,37.26 82.8,82.8l0 6.83c0,45.54 -37.26,82.79 -82.8,82.79l0 0c-45.54,0 -82.8,-37.25 -82.8,-82.79l0 -6.83c0,-45.54 37.26,-82.8 82.8,-82.8zm-190.43 42.63l14.53 0 0 87.16 -14.53 0c-7.99,0 -14.52,-6.54 -14.52,-14.53l0 -58.1c0,-7.99 6.53,-14.53 14.52,-14.53zm-371.15 -42.63l77.51 0 17.07 89.96 17.53 -89.96 68.32 0 -54.45 172.42 -69.69 0 -56.29 -172.42zm192.18 0l71.62 0 0 172.42 -71.62 0 0 -172.42zm35.81 -81.93c20.54,0 37.19,14.7 37.19,32.83 0,18.13 -16.65,32.83 -37.19,32.83 -20.53,0 -37.18,-14.7 -37.18,-32.83 0,-18.13 16.65,-32.83 37.18,-32.83zm143.17 81.93l0 0c32.79,-0.79 60.15,2.69 82.79,9.88l0 166.54c0,36.94 -52.47,67.83 -90.89,68.51 -38.42,0.68 -50.59,-7.53 -67.22,-20.67l16.93 -42.27c28.56,17.57 72.22,15.42 75.87,-4.97 0.3,-1.67 0.41,-3.2 0.37,-4.6l-17.85 0 0 0c-45.55,0 -82.8,-37.25 -82.8,-82.79l0 -6.83c0,-45.54 37.25,-82.8 82.8,-82.8zm190.42 42.63l0 0c7.99,0 14.53,6.54 14.53,14.53l0 58.1c0,7.99 -6.54,14.53 -14.53,14.53l0 0c-7.99,0 -14.53,-6.54 -14.53,-14.53l0 -58.1c0,-7.99 6.54,-14.53 14.53,-14.53z"/>
  </g>
 </g>
</svg>
