<svg xmlns="http://www.w3.org/2000/svg" xmlns:xlink="http://www.w3.org/1999/xlink" width="375.666" height="442.393" viewBox="0 0 375.666 442.393">
  <defs>
    <linearGradient id="linear-gradient" x1="-7.832" y1="0.499" x2="-6.832" y2="0.499" gradientUnits="objectBoundingBox">
      <stop offset="0" stop-color="#fff"/>
      <stop offset="0.396" stop-color="#d5e7f8"/>
      <stop offset="0.786" stop-color="#b2d3f1"/>
      <stop offset="0.996" stop-color="#a5cbef"/>
    </linearGradient>
    <linearGradient id="linear-gradient-2" x1="-6.18" y1="0.5" x2="-5.179" y2="0.5" gradientUnits="objectBoundingBox">
      <stop offset="0.004" stop-color="#a5cbef"/>
      <stop offset="0.214" stop-color="#b2d3f1"/>
      <stop offset="0.604" stop-color="#d5e7f8"/>
      <stop offset="1" stop-color="#fff"/>
    </linearGradient>
    <linearGradient id="linear-gradient-3" x1="-0.013" y1="0.5" x2="1.003" y2="0.5" gradientUnits="objectBoundingBox">
      <stop offset="0" stop-color="#fff"/>
      <stop offset="1" stop-color="#a8d9fb"/>
    </linearGradient>
    <linearGradient id="linear-gradient-4" x1="-0.008" y1="0.5" x2="0.987" y2="0.5" xlink:href="#linear-gradient-3"/>
    <linearGradient id="linear-gradient-5" x1="0.003" y1="0.502" x2="1" y2="0.502" gradientUnits="objectBoundingBox">
      <stop offset="0" stop-color="#5d7dbe"/>
      <stop offset="1" stop-color="#3c5185"/>
    </linearGradient>
    <linearGradient id="linear-gradient-6" x1="-0.669" y1="0.938" x2="1.869" y2="0.102" gradientUnits="objectBoundingBox">
      <stop offset="0" stop-color="#3c5185"/>
      <stop offset="0.136" stop-color="#435a91"/>
      <stop offset="0.428" stop-color="#4f6aa6"/>
      <stop offset="0.717" stop-color="#5674b2"/>
      <stop offset="1" stop-color="#5877b6"/>
    </linearGradient>
    <linearGradient id="linear-gradient-7" x1="-7.382" y1="1.209" x2="-6.216" y2="1.209" gradientUnits="objectBoundingBox">
      <stop offset="0.15" stop-color="#ff9800"/>
      <stop offset="1" stop-color="#ffc107"/>
    </linearGradient>
    <linearGradient id="linear-gradient-8" x1="-0.003" y1="0.5" x2="0.999" y2="0.5" gradientUnits="objectBoundingBox">
      <stop offset="0" stop-color="#3c5185"/>
      <stop offset="0.128" stop-color="#41588e"/>
      <stop offset="0.695" stop-color="#5573b1"/>
      <stop offset="1" stop-color="#5d7dbe"/>
    </linearGradient>
    <linearGradient id="linear-gradient-9" x1="-0.008" y1="0.5" x2="0.993" y2="0.5" xlink:href="#linear-gradient-8"/>
    <linearGradient id="linear-gradient-10" x1="-3.191" y1="0.491" x2="-2.18" y2="0.491" xlink:href="#linear-gradient-7"/>
    <linearGradient id="linear-gradient-11" x1="1.041" y1="0.953" x2="0.221" y2="-0.031" xlink:href="#linear-gradient-8"/>
    <linearGradient id="linear-gradient-12" x1="1.024" y1="0.937" x2="0.215" y2="-0.028" xlink:href="#linear-gradient-8"/>
    <radialGradient id="radial-gradient" cx="0.498" cy="0.534" r="0.882" gradientTransform="translate(0.213 323.58) scale(0.571 0.517)" gradientUnits="objectBoundingBox">
      <stop offset="0" stop-color="#3c5185"/>
      <stop offset="0.052" stop-color="#596b97"/>
      <stop offset="0.141" stop-color="#8592b3"/>
      <stop offset="0.235" stop-color="#abb4ca"/>
      <stop offset="0.331" stop-color="#c9cfdd"/>
      <stop offset="0.432" stop-color="#e1e4ec"/>
      <stop offset="0.539" stop-color="#f2f3f7"/>
      <stop offset="0.656" stop-color="#fcfcfd"/>
      <stop offset="0.802" stop-color="#fff"/>
    </radialGradient>
    <linearGradient id="linear-gradient-13" x1="0.001" y1="0.497" x2="1.003" y2="0.497" gradientUnits="objectBoundingBox">
      <stop offset="0.021" stop-color="#ffc107"/>
      <stop offset="0.143" stop-color="#ffbc06"/>
      <stop offset="1" stop-color="#ff9800"/>
    </linearGradient>
    <linearGradient id="linear-gradient-14" x1="0" y1="0.501" x2="0.997" y2="0.501" xlink:href="#linear-gradient-13"/>
    <linearGradient id="linear-gradient-15" x1="0.939" y1="0.943" x2="0.171" y2="0.246" xlink:href="#linear-gradient-8"/>
    <linearGradient id="linear-gradient-16" x1="0.828" y1="-0.095" x2="-0.261" y2="1.182" gradientUnits="objectBoundingBox">
      <stop offset="0" stop-color="#5d7dbe"/>
      <stop offset="0.305" stop-color="#5573b1"/>
      <stop offset="0.872" stop-color="#41588e"/>
      <stop offset="1" stop-color="#3c5185"/>
    </linearGradient>
    <linearGradient id="linear-gradient-17" x1="-0.002" y1="0.5" x2="0.999" y2="0.5" gradientUnits="objectBoundingBox">
      <stop offset="0" stop-color="#7ea7df"/>
      <stop offset="0.358" stop-color="#a1bfe7"/>
      <stop offset="0.775" stop-color="#c4d8ef"/>
      <stop offset="1" stop-color="#d1e1f2"/>
    </linearGradient>
    <radialGradient id="radial-gradient-2" cx="0.5" cy="0.525" r="0.881" gradientTransform="translate(0.213 247.797) scale(0.573 0.517)" gradientUnits="objectBoundingBox">
      <stop offset="0" stop-color="#3c5185"/>
      <stop offset="0.057" stop-color="#506291"/>
      <stop offset="0.254" stop-color="#8d9ab8"/>
      <stop offset="0.434" stop-color="#bec5d7"/>
      <stop offset="0.591" stop-color="#e2e5ed"/>
      <stop offset="0.719" stop-color="#f7f8fa"/>
      <stop offset="0.802" stop-color="#fff"/>
    </radialGradient>
  </defs>
  <g id="XMLID_2_" transform="translate(-99.157 -40.392)">
    <g id="XMLID_830_" transform="translate(99.157 86.62)">
      <g id="XMLID_947_" transform="translate(34.365 160.442)" opacity="0.7">
        <path id="XMLID_1186_" d="M292.39,121.631l125.7,71.867a4.155,4.155,0,0,1,0,7.056l-195.477,112.9a16.3,16.3,0,0,1-16.2,0L80.71,241.583a4.155,4.155,0,0,1,0-7.056l195.477-112.9A16.3,16.3,0,0,1,292.39,121.631Z" transform="translate(-78.75 -119.475)" fill="#3c5185" opacity="0"/>
        <path id="XMLID_1185_" d="M292.067,121.631l125.179,71.605a4.155,4.155,0,0,1,0,7.056L222.291,312.927a16.3,16.3,0,0,1-16.2,0L80.91,241.322a4.155,4.155,0,0,1,0-7.056L275.864,121.631A16.3,16.3,0,0,1,292.067,121.631Z" transform="translate(-78.427 -119.475)" fill="#3c5185" opacity="0.024"/>
        <path id="XMLID_1184_" d="M291.483,121.491,416.4,192.834a4.155,4.155,0,0,1,0,7.056L221.968,312a15.811,15.811,0,0,1-15.941,0L81.11,240.92a4.155,4.155,0,0,1,0-7.056L275.542,121.752A16.47,16.47,0,0,1,291.483,121.491Z" transform="translate(-78.105 -119.335)" fill="#3c5185" opacity="0.049"/>
        <path id="XMLID_1039_" d="M291,121.731l124.395,71.083a4.155,4.155,0,0,1,0,7.056L221.746,311.72a15.812,15.812,0,0,1-15.941,0L81.41,240.638a4.155,4.155,0,0,1,0-7.056L275.058,121.731A15.812,15.812,0,0,1,291,121.731Z" transform="translate(-77.621 -119.314)" fill="#3c5185" opacity="0.073"/>
        <path id="XMLID_1038_" d="M290.576,121.61,414.71,192.431a4.155,4.155,0,0,1,0,7.056L221.585,311.076a15.811,15.811,0,0,1-15.941,0L81.51,240.255a4.155,4.155,0,0,1,0-7.056L274.635,121.61A17.187,17.187,0,0,1,290.576,121.61Z" transform="translate(-77.459 -119.193)" fill="#3c5185" opacity="0.098"/>
        <path id="XMLID_1037_" d="M290.254,121.831l123.611,70.821a4.155,4.155,0,0,1,0,7.056l-192.6,111.067a15.811,15.811,0,0,1-15.941,0L81.71,239.954a4.155,4.155,0,0,1,0-7.056l192.6-111.067A15.812,15.812,0,0,1,290.254,121.831Z" transform="translate(-77.137 -119.152)" fill="#3c5185" opacity="0.122"/>
        <path id="XMLID_1036_" d="M289.67,121.71l123.349,70.56a4.155,4.155,0,0,1,0,7.056L221.2,310.131a15.811,15.811,0,0,1-15.941,0L81.91,239.571a4.155,4.155,0,0,1,0-7.056L273.728,121.71A17.187,17.187,0,0,1,289.67,121.71Z" transform="translate(-76.814 -119.031)" fill="#3c5185" opacity="0.146"/>
        <path id="XMLID_1035_" d="M289.186,121.931l122.827,70.3c2.613,1.568,2.613,5.488,0,6.795l-191.3,110.544a15.331,15.331,0,0,1-15.68,0L82.21,239.27c-2.613-1.568-2.613-5.488,0-6.795l191.3-110.544A15.331,15.331,0,0,1,289.186,121.931Z" transform="translate(-76.33 -118.991)" fill="#3c5185" opacity="0.171"/>
        <path id="XMLID_1034_" d="M288.763,121.871l122.565,70.037c2.613,1.568,2.613,5.488,0,6.795L220.555,308.724a15.331,15.331,0,0,1-15.68,0L82.31,238.687c-2.613-1.568-2.613-5.488,0-6.795L273.083,121.871C278.048,119.258,284.059,119,288.763,121.871Z" transform="translate(-76.169 -118.931)" fill="#3c5185" opacity="0.195"/>
        <path id="XMLID_1033_" d="M288.44,122.031l122.043,69.776a3.924,3.924,0,0,1,0,6.795l-190.25,109.76a15.332,15.332,0,0,1-15.68,0L82.51,238.586a3.924,3.924,0,0,1,0-6.795l190.25-109.76A15.331,15.331,0,0,1,288.44,122.031Z" transform="translate(-75.846 -118.83)" fill="#3c5185" opacity="0.22"/>
        <path id="XMLID_1032_" d="M287.856,122.031l121.781,69.515a3.924,3.924,0,0,1,0,6.795l-189.466,109.5a15.333,15.333,0,0,1-15.68,0L82.71,238.324a3.924,3.924,0,0,1,0-6.795l189.466-109.5A15.331,15.331,0,0,1,287.856,122.031Z" transform="translate(-75.523 -118.83)" fill="#3c5185" opacity="0.244"/>
        <path id="XMLID_1031_" d="M287.534,121.91l121.259,69.253a3.924,3.924,0,0,1,0,6.795L219.848,306.934a15.331,15.331,0,0,1-15.68,0L82.91,237.681a3.924,3.924,0,0,1,0-6.795L271.854,121.91A16.66,16.66,0,0,1,287.534,121.91Z" transform="translate(-75.201 -118.709)" fill="#3c5185" opacity="0.268"/>
        <path id="XMLID_1030_" d="M286.95,122.131l121,69.253a3.924,3.924,0,0,1,0,6.795L219.526,306.893a15.331,15.331,0,0,1-15.68,0L83.11,237.64a3.924,3.924,0,0,1,0-6.795L271.531,122.131A14.861,14.861,0,0,1,286.95,122.131Z" transform="translate(-74.878 -118.668)" fill="#3c5185" opacity="0.293"/>
        <path id="XMLID_1029_" d="M286.627,122.01,407.363,191a3.924,3.924,0,0,1,0,6.795L219.464,306.25a14.861,14.861,0,0,1-15.419,0L83.31,237.258a3.924,3.924,0,0,1,0-6.795l187.9-108.453A16.14,16.14,0,0,1,286.627,122.01Z" transform="translate(-74.555 -118.547)" fill="#3c5185" opacity="0.317"/>
        <path id="XMLID_1028_" d="M286.043,122.231l120.213,68.731a3.924,3.924,0,0,1,0,6.795L219.142,305.948a14.861,14.861,0,0,1-15.419,0L83.51,237.218a3.924,3.924,0,0,1,0-6.795L270.624,122.231A14.861,14.861,0,0,1,286.043,122.231Z" transform="translate(-74.233 -118.507)" fill="#3c5185" opacity="0.342"/>
        <path id="XMLID_1027_" d="M285.72,122.11l119.952,68.469a3.924,3.924,0,0,1,0,6.795L219.081,305.043a14.861,14.861,0,0,1-15.419,0L83.71,236.574a3.924,3.924,0,0,1,0-6.795L270.3,122.11A16.141,16.141,0,0,1,285.72,122.11Z" transform="translate(-73.91 -118.386)" fill="#3c5185" opacity="0.366"/>
        <path id="XMLID_1026_" d="M285.3,122.331l119.429,68.208a3.924,3.924,0,0,1,0,6.795L218.658,304.741a15.468,15.468,0,0,1-15.419,0L83.81,236.534a3.924,3.924,0,0,1,0-6.795L269.879,122.331A14.859,14.859,0,0,1,285.3,122.331Z" transform="translate(-73.749 -118.346)" fill="#3c5185" opacity="0.39"/>
        <path id="XMLID_1025_" d="M284.814,122.21l119.168,67.947a3.924,3.924,0,0,1,0,6.795L218.7,304.1a15.467,15.467,0,0,1-15.419,0L84.11,236.151a3.924,3.924,0,0,1,0-6.795L269.4,122.21A16.142,16.142,0,0,1,284.814,122.21Z" transform="translate(-73.265 -118.225)" fill="#3c5185" opacity="0.415"/>
        <path id="XMLID_1024_" d="M284.23,122.431l118.645,67.947a3.924,3.924,0,0,1,0,6.795L218.113,303.8a15.632,15.632,0,0,1-15.157,0L84.31,235.85a3.924,3.924,0,0,1,0-6.795L269.072,122.431A14.4,14.4,0,0,1,284.23,122.431Z" transform="translate(-72.942 -118.184)" fill="#3c5185" opacity="0.439"/>
        <path id="XMLID_1023_" d="M283.907,122.31,402.291,190a3.7,3.7,0,0,1,0,6.533L218.051,302.891a15.632,15.632,0,0,1-15.157,0L84.51,235.206a3.7,3.7,0,0,1,0-6.533L268.75,122.31A15.632,15.632,0,0,1,283.907,122.31Z" transform="translate(-72.619 -118.063)" fill="#3c5185" opacity="0.463"/>
        <path id="XMLID_1022_" d="M283.484,122.31l117.861,67.424a3.7,3.7,0,0,1,0,6.533l-183.717,106.1a15.632,15.632,0,0,1-15.157,0L84.61,234.945a3.7,3.7,0,0,1,0-6.533l183.717-106.1A15.632,15.632,0,0,1,283.484,122.31Z" transform="translate(-72.458 -118.063)" fill="#3c5185" opacity="0.488"/>
        <path id="XMLID_1017_" d="M283,122.41l117.6,67.163a3.7,3.7,0,0,1,0,6.533L217.667,301.684a15.632,15.632,0,0,1-15.157,0L84.91,234.522a3.7,3.7,0,0,1,0-6.533L267.843,122.41A15.632,15.632,0,0,1,283,122.41Z" transform="translate(-71.974 -117.902)" fill="#3c5185" opacity="0.512"/>
        <path id="XMLID_1016_" d="M282.578,122.41l117.077,66.9a3.7,3.7,0,0,1,0,6.533L217.245,301.162a15.632,15.632,0,0,1-15.157,0L85.01,234.261a3.7,3.7,0,0,1,0-6.533L267.42,122.41A15.632,15.632,0,0,1,282.578,122.41Z" transform="translate(-71.813 -117.902)" fill="#3c5185" opacity="0.537"/>
        <path id="XMLID_981_" d="M282.094,122.51,398.91,189.15a3.7,3.7,0,0,1,0,6.533L217.022,300.739a15.129,15.129,0,0,1-14.9,0L85.31,234.1a3.7,3.7,0,0,1,0-6.533L267.2,122.51A15.129,15.129,0,0,1,282.094,122.51Z" transform="translate(-71.329 -117.741)" fill="#3c5185" opacity="0.561"/>
        <path id="XMLID_980_" d="M281.671,122.51l116.293,66.64a3.7,3.7,0,0,1,0,6.533L216.6,300.216a15.129,15.129,0,0,1-14.9,0L85.41,233.577a3.7,3.7,0,0,1,0-6.533L266.775,122.51A15.129,15.129,0,0,1,281.671,122.51Z" transform="translate(-71.167 -117.741)" fill="#3c5185" opacity="0.585"/>
        <path id="XMLID_979_" d="M281.187,122.61l116.032,66.379a3.7,3.7,0,0,1,0,6.533L216.638,299.794a15.131,15.131,0,0,1-14.9,0L85.71,233.415a3.7,3.7,0,0,1,0-6.533L266.291,122.61A15.129,15.129,0,0,1,281.187,122.61Z" transform="translate(-70.683 -117.579)" fill="#3c5185" opacity="0.61"/>
        <path id="XMLID_978_" d="M280.764,122.61l115.771,66.117a3.7,3.7,0,0,1,0,6.533L216.477,299.271a15.131,15.131,0,0,1-14.9,0L85.81,233.154a3.7,3.7,0,0,1,0-6.533L265.868,122.61A15.129,15.129,0,0,1,280.764,122.61Z" transform="translate(-70.522 -117.579)" fill="#3c5185" opacity="0.634"/>
        <path id="XMLID_977_" d="M280.442,122.71,395.69,188.566a3.7,3.7,0,0,1,0,6.533L216.154,298.587a15.131,15.131,0,0,1-14.9,0L86.01,232.731a3.7,3.7,0,0,1,0-6.533L265.546,122.71A15.131,15.131,0,0,1,280.442,122.71Z" transform="translate(-70.199 -117.418)" fill="#3c5185" opacity="0.659"/>
        <path id="XMLID_976_" d="M279.858,122.71,394.844,188.3a3.7,3.7,0,0,1,0,6.533L216.093,298.064a15.129,15.129,0,0,1-14.9,0L86.21,232.47a3.7,3.7,0,0,1,0-6.533L264.962,122.71A15.129,15.129,0,0,1,279.858,122.71Z" transform="translate(-69.877 -117.418)" fill="#3c5185" opacity="0.683"/>
        <path id="XMLID_975_" d="M279.374,122.81l114.464,65.333a3.7,3.7,0,0,1,0,6.533L215.609,297.642a14.639,14.639,0,0,1-14.635,0L86.51,232.309a3.7,3.7,0,0,1,0-6.533L264.739,122.81A14.637,14.637,0,0,1,279.374,122.81Z" transform="translate(-69.393 -117.257)" fill="#3c5185" opacity="0.707"/>
        <path id="XMLID_974_" d="M278.891,122.81l114.2,65.333a3.8,3.8,0,0,1,0,6.533l-177.706,102.7a14.639,14.639,0,0,1-14.635,0L86.55,232.047a3.8,3.8,0,0,1,0-6.533l177.706-102.7A14.639,14.639,0,0,1,278.891,122.81Z" transform="translate(-69.172 -117.257)" fill="#3c5185" opacity="0.732"/>
        <path id="XMLID_973_" d="M278.507,122.75l113.68,65.072a3.67,3.67,0,0,1,0,6.272L215,296.275a14.639,14.639,0,0,1-14.635,0L86.689,231.2a3.67,3.67,0,0,1,0-6.272L263.873,122.75A15.306,15.306,0,0,1,278.507,122.75Z" transform="translate(-68.788 -117.197)" fill="#3c5185" opacity="0.756"/>
        <path id="XMLID_972_" d="M277.923,122.91l113.419,64.811a3.67,3.67,0,0,1,0,6.272l-176.4,101.92a14.637,14.637,0,0,1-14.635,0L86.889,231.1a3.67,3.67,0,0,1,0-6.272l176.4-101.92A14.637,14.637,0,0,1,277.923,122.91Z" transform="translate(-68.465 -117.095)" fill="#3c5185" opacity="0.78"/>
        <path id="XMLID_971_" d="M277.6,122.91l112.9,64.549a3.67,3.67,0,0,1,0,6.272L214.62,295.39a14.637,14.637,0,0,1-14.635,0l-112.9-64.549a3.67,3.67,0,0,1,0-6.272L262.966,122.91A14.639,14.639,0,0,1,277.6,122.91Z" transform="translate(-68.142 -117.095)" fill="#3c5185" opacity="0.805"/>
        <path id="XMLID_966_" d="M277.017,123.01,389.651,187.3a3.67,3.67,0,0,1,0,6.272L214.3,294.706a14.155,14.155,0,0,1-14.373,0L87.289,230.418a3.67,3.67,0,0,1,0-6.272L262.643,123.01A14.156,14.156,0,0,1,277.017,123.01Z" transform="translate(-67.82 -116.934)" fill="#3c5185" opacity="0.829"/>
        <path id="XMLID_965_" d="M276.533,123.01l112.112,64.027a3.67,3.67,0,0,1,0,6.272L214.074,294.183a14.155,14.155,0,0,1-14.373,0L87.589,230.157a3.67,3.67,0,0,1,0-6.272L262.16,123.01A14.155,14.155,0,0,1,276.533,123.01Z" transform="translate(-67.336 -116.934)" fill="#3c5185" opacity="0.854"/>
        <path id="XMLID_964_" d="M276.11,123.11l111.851,64.027a3.67,3.67,0,0,1,0,6.272L213.913,294.022a14.155,14.155,0,0,1-14.373,0L87.689,230a3.67,3.67,0,0,1,0-6.272L261.737,123.11A14.156,14.156,0,0,1,276.11,123.11Z" transform="translate(-67.174 -116.773)" fill="#3c5185" opacity="0.878"/>
        <path id="XMLID_963_" d="M275.787,123.11l111.328,63.765a3.67,3.67,0,0,1,0,6.272L213.59,293.238a14.156,14.156,0,0,1-14.373,0L87.889,229.473a3.67,3.67,0,0,1,0-6.272L261.414,123.11A14.155,14.155,0,0,1,275.787,123.11Z" transform="translate(-66.852 -116.773)" fill="#3c5185" opacity="0.902"/>
        <path id="XMLID_962_" d="M275.2,123.21l111.067,63.5a3.67,3.67,0,0,1,0,6.272L213.529,292.554a14.156,14.156,0,0,1-14.373,0L88.089,229.311a3.67,3.67,0,0,1,0-6.272l173-99.829A13.681,13.681,0,0,1,275.2,123.21Z" transform="translate(-66.529 -116.611)" fill="#3c5185" opacity="0.927"/>
        <path id="XMLID_951_" d="M274.881,123.21l110.805,63.243a3.67,3.67,0,0,1,0,6.272l-172.48,99.568a13.679,13.679,0,0,1-14.112,0L88.289,229.05a3.67,3.67,0,0,1,0-6.272L260.508,123.21A14.155,14.155,0,0,1,274.881,123.21Z" transform="translate(-66.206 -116.611)" fill="#3c5185" opacity="0.951"/>
        <path id="XMLID_949_" d="M274.3,123.07l110.283,62.981a3.668,3.668,0,0,1,0,6.272l-171.7,99.307a13.681,13.681,0,0,1-14.112,0L88.489,228.648a3.668,3.668,0,0,1,0-6.272l171.7-99.045A14.307,14.307,0,0,1,274.3,123.07Z" transform="translate(-65.884 -116.471)" fill="#3c5185" opacity="0.976"/>
        <path id="XMLID_948_" d="M273.974,123.31,384,186.03a3.668,3.668,0,0,1,0,6.272L212.822,291.086a13.681,13.681,0,0,1-14.112,0L88.689,228.366a3.668,3.668,0,0,1,0-6.272L259.862,123.31A13.679,13.679,0,0,1,273.974,123.31Z" transform="translate(-65.561 -116.45)" fill="#3c5185"/>
      </g>
      <path id="XMLID_945_" d="M69.781,168.151l189.728-109.5a3.772,3.772,0,0,1,5.749,3.4L300.538,205a8.661,8.661,0,0,1-4.181,7.317l-189.728,109.5c-2.613,1.568-4.443.261-5.749-3.4L65.6,175.469A8.045,8.045,0,0,1,69.781,168.151Z" transform="translate(-65.6 -58.081)" fill="url(#linear-gradient)"/>
      <path id="XMLID_896_" d="M70.681,168.751l189.728-109.5a3.772,3.772,0,0,1,5.749,3.4L301.438,205.6a8.661,8.661,0,0,1-4.181,7.317l-189.728,109.5c-2.613,1.568-4.965-1.307-5.749-3.4L66.5,176.069A8.341,8.341,0,0,1,70.681,168.751Z" transform="translate(-64.148 -57.113)" fill="#3c5185"/>
      <path id="XMLID_895_" d="M70.8,169.156,251.9,64.1,284.57,196.073l-181.1,105.056Z" transform="translate(-57.211 -48.371)" fill="#edf3fa"/>
      <path id="XMLID_891_" d="M285.259,121.631l121.52,64.027s.784,9.408-1.829,10.976L218.88,304.041a15.469,15.469,0,0,1-15.419,0L84.032,235.834C79.067,232.7,82.2,224.858,82.2,224.858L270.1,121.631A14.4,14.4,0,0,1,285.259,121.631Z" transform="translate(-40.39 40.967)" fill="url(#linear-gradient-2)"/>
      <path id="XMLID_890_" d="M284.9,118.831l119.429,68.208a3.924,3.924,0,0,1,0,6.795L218.258,301.241a15.468,15.468,0,0,1-15.419,0L83.41,233.034a3.924,3.924,0,0,1,0-6.795L269.479,118.831A14.859,14.859,0,0,1,284.9,118.831Z" transform="translate(-40.029 36.45)" fill="#fff"/>
      <path id="XMLID_889_" d="M196.514,151.663l31.621,18.032c.784.261.784,1.307,0,1.829L179,199.748a3.554,3.554,0,0,1-3.92,0l-31.621-18.032c-.784-.261-.784-1.307,0-1.829l49.131-28.224A3.554,3.554,0,0,1,196.514,151.663Z" transform="translate(59.07 91.948)" fill="#d1e1f2"/>
      <path id="XMLID_888_" d="M160.834,121.4l-10.192,6.011a.544.544,0,0,0,0,1.045l5.227,2.875a1.166,1.166,0,0,0,1.307,0l10.192-6.011a.544.544,0,0,0,0-1.045l-5.227-2.875Z" transform="translate(70.969 44.073)" fill="#d1e1f2"/>
      <path id="XMLID_887_" d="M155.034,125.021l-10.192,6.011a.544.544,0,0,0,0,1.045l5.227,2.875a1.166,1.166,0,0,0,1.307,0l10.192-6.011a.544.544,0,0,0,0-1.045l-5.227-2.875A1.166,1.166,0,0,0,155.034,125.021Z" transform="translate(61.611 49.599)" fill="#d1e1f2"/>
      <path id="XMLID_886_" d="M149.234,128.1l-10.192,6.011a.544.544,0,0,0,0,1.045l5.227,2.875a1.167,1.167,0,0,0,1.307,0l10.192-6.011a.544.544,0,0,0,0-1.045l-5.227-2.875Z" transform="translate(52.254 54.882)" fill="#d1e1f2"/>
      <path id="XMLID_885_" d="M143.334,131.621l-10.192,6.011a.544.544,0,0,0,0,1.045l5.227,2.875a1.167,1.167,0,0,0,1.307,0l10.192-6.011a.544.544,0,0,0,0-1.045l-5.227-2.875A1.166,1.166,0,0,0,143.334,131.621Z" transform="translate(42.735 60.246)" fill="#d1e1f2"/>
      <path id="XMLID_884_" d="M137.534,134.821l-10.192,6.011a.544.544,0,0,0,0,1.045l5.227,2.875a1.166,1.166,0,0,0,1.307,0l10.192-6.011a.544.544,0,0,0,0-1.045l-5.227-2.875A1.167,1.167,0,0,0,137.534,134.821Z" transform="translate(33.378 65.409)" fill="#d1e1f2"/>
      <path id="XMLID_883_" d="M132.034,138.1l-10.192,6.011a.544.544,0,0,0,0,1.045l5.227,2.875a1.166,1.166,0,0,0,1.307,0l10.192-6.011a.544.544,0,0,0,0-1.045l-5.227-2.875Z" transform="translate(24.505 71.015)" fill="#d1e1f2"/>
      <path id="XMLID_882_" d="M126.134,141.521l-10.192,6.011a.544.544,0,0,0,0,1.045l5.227,2.875a1.166,1.166,0,0,0,1.307,0l10.192-6.011a.544.544,0,0,0,0-1.045l-5.227-2.875A1.167,1.167,0,0,0,126.134,141.521Z" transform="translate(14.986 76.218)" fill="#d1e1f2"/>
      <path id="XMLID_881_" d="M120.434,144.921l-10.192,6.011a.544.544,0,0,0,0,1.045l5.227,2.875a1.166,1.166,0,0,0,1.307,0l10.192-6.011a.544.544,0,0,0,0-1.045l-5.227-2.875A1.167,1.167,0,0,0,120.434,144.921Z" transform="translate(5.79 81.704)" fill="#d1e1f2"/>
      <path id="XMLID_880_" d="M114.734,148.221l-10.192,6.011a.544.544,0,0,0,0,1.045l5.227,2.875a1.166,1.166,0,0,0,1.307,0l10.192-6.011a.544.544,0,0,0,0-1.045l-5.227-2.875A1.166,1.166,0,0,0,114.734,148.221Z" transform="translate(-3.406 87.028)" fill="#d1e1f2"/>
      <path id="XMLID_879_" d="M108.834,151.721l-10.192,6.011a.544.544,0,0,0,0,1.045l5.227,2.875a1.167,1.167,0,0,0,1.307,0l10.192-6.011a.544.544,0,0,0,0-1.045l-5.227-2.875A1.166,1.166,0,0,0,108.834,151.721Z" transform="translate(-12.925 92.674)" fill="#d1e1f2"/>
      <path id="XMLID_878_" d="M103.034,154.921l-10.192,6.011a.544.544,0,0,0,0,1.045l5.227,2.875a1.167,1.167,0,0,0,1.307,0l10.192-6.011a.544.544,0,0,0,0-1.045l-5.227-2.875A1.166,1.166,0,0,0,103.034,154.921Z" transform="translate(-22.282 97.837)" fill="#d1e1f2"/>
      <g id="XMLID_866_" transform="translate(83.365 172.137)">
        <path id="XMLID_877_" d="M173.109,128.523l-7.056-4.181a2.831,2.831,0,0,0-2.875,0l-6.795,3.92c-1.045.523-1.045,1.829,0,2.613l6.795,4.181a2.831,2.831,0,0,0,2.875,0l7.056-3.92C174.155,130.614,174.155,129.307,173.109,128.523Z" transform="translate(-3.765 -123.95)" fill="#d1e1f2"/>
        <path id="XMLID_876_" d="M167.109,132.023l-7.056-4.181a2.831,2.831,0,0,0-2.875,0l-6.795,3.92c-1.045.523-1.045,1.829,0,2.613l6.795,4.181a2.831,2.831,0,0,0,2.875,0l7.056-3.92C168.155,133.853,168.155,132.546,167.109,132.023Z" transform="translate(-13.445 -118.303)" fill="#d1e1f2"/>
        <path id="XMLID_875_" d="M161.309,135.223l-7.056-4.181a2.831,2.831,0,0,0-2.875,0l-6.795,3.92c-1.045.523-1.045,1.829,0,2.613l6.795,4.181a2.831,2.831,0,0,0,2.875,0l7.056-3.92A1.481,1.481,0,0,0,161.309,135.223Z" transform="translate(-22.803 -113.141)" fill="#d1e1f2"/>
        <path id="XMLID_874_" d="M155.209,138.623l-7.056-4.181a2.831,2.831,0,0,0-2.875,0l-6.795,3.92c-1.045.523-1.045,1.829,0,2.613l6.795,4.181a2.831,2.831,0,0,0,2.875,0l7.056-3.92A1.74,1.74,0,0,0,155.209,138.623Z" transform="translate(-32.644 -107.655)" fill="#d1e1f2"/>
        <path id="XMLID_873_" d="M149.709,141.823l-7.056-4.181a2.831,2.831,0,0,0-2.875,0l-6.795,3.92c-1.045.523-1.045,1.829,0,2.613l6.795,4.181a2.831,2.831,0,0,0,2.875,0l7.056-3.92C150.755,143.653,150.755,142.346,149.709,141.823Z" transform="translate(-41.517 -102.493)" fill="#d1e1f2"/>
        <path id="XMLID_872_" d="M144.209,145.223l-7.056-4.181a2.831,2.831,0,0,0-2.875,0l-6.795,3.92c-1.045.523-1.045,1.829,0,2.613l6.795,4.181a2.831,2.831,0,0,0,2.875,0l7.056-3.92A1.481,1.481,0,0,0,144.209,145.223Z" transform="translate(-50.391 -97.007)" fill="#d1e1f2"/>
        <path id="XMLID_871_" d="M138.309,148.423l-7.056-4.181a2.831,2.831,0,0,0-2.875,0l-6.795,3.92c-1.045.523-1.045,1.829,0,2.613l6.795,4.181a2.831,2.831,0,0,0,2.875,0l7.056-3.92C139.355,150.514,139.355,149.207,138.309,148.423Z" transform="translate(-59.909 -91.845)" fill="#d1e1f2"/>
        <path id="XMLID_870_" d="M132.509,151.723l-7.056-4.181a2.831,2.831,0,0,0-2.875,0l-6.795,3.92c-1.045.523-1.045,1.829,0,2.613l6.795,4.181a2.831,2.831,0,0,0,2.875,0l7.056-3.92A1.481,1.481,0,0,0,132.509,151.723Z" transform="translate(-69.267 -86.521)" fill="#d1e1f2"/>
        <path id="XMLID_869_" d="M126.809,155.223l-7.056-4.181a2.831,2.831,0,0,0-2.875,0l-6.795,3.92c-1.045.523-1.045,1.829,0,2.613l6.795,4.181a2.831,2.831,0,0,0,2.875,0l7.056-3.92A1.481,1.481,0,0,0,126.809,155.223Z" transform="translate(-78.463 -80.874)" fill="#d1e1f2"/>
        <path id="XMLID_868_" d="M120.609,158.923l-7.056-4.181a2.831,2.831,0,0,0-2.875,0l-6.795,3.92c-1.045.523-1.045,1.829,0,2.613l6.795,4.181a2.831,2.831,0,0,0,2.875,0l7.056-3.92C121.655,160.753,121.655,159.446,120.609,158.923Z" transform="translate(-88.465 -74.905)" fill="#d1e1f2"/>
        <path id="XMLID_867_" d="M115.009,161.923l-7.056-4.181a2.831,2.831,0,0,0-2.875,0l-6.795,3.92c-1.045.523-1.045,1.829,0,2.613l6.795,4.181a2.831,2.831,0,0,0,2.875,0l7.056-3.92C116.055,163.753,116.055,162.446,115.009,161.923Z" transform="translate(-97.5 -70.065)" fill="#d1e1f2"/>
      </g>
      <g id="XMLID_854_" transform="translate(99.045 180.761)">
        <path id="XMLID_865_" d="M179.109,131.823l-7.056-4.181a2.831,2.831,0,0,0-2.875,0l-6.795,3.92c-1.045.523-1.045,1.829,0,2.613l6.795,4.181a2.831,2.831,0,0,0,2.875,0l7.056-3.92A1.74,1.74,0,0,0,179.109,131.823Z" transform="translate(-9.765 -127.25)" fill="#d1e1f2"/>
        <path id="XMLID_864_" d="M173.109,135.223l-7.056-4.181a2.831,2.831,0,0,0-2.875,0l-6.795,3.92c-1.045.523-1.045,1.829,0,2.613l6.795,4.181a2.831,2.831,0,0,0,2.875,0l7.056-3.92A1.481,1.481,0,0,0,173.109,135.223Z" transform="translate(-19.445 -121.765)" fill="#d1e1f2"/>
        <path id="XMLID_863_" d="M167.309,138.523l-7.056-4.181a2.831,2.831,0,0,0-2.875,0l-6.795,3.92c-1.045.523-1.045,1.829,0,2.613l6.795,4.181a2.831,2.831,0,0,0,2.875,0l7.056-3.92C168.355,140.353,168.355,139.046,167.309,138.523Z" transform="translate(-28.803 -116.441)" fill="#d1e1f2"/>
        <path id="XMLID_862_" d="M161.109,141.823l-7.056-4.181a2.831,2.831,0,0,0-2.875,0l-6.795,3.92c-1.045.523-1.045,1.829,0,2.613l6.795,4.181a2.831,2.831,0,0,0,2.875,0l7.056-3.92A1.481,1.481,0,0,0,161.109,141.823Z" transform="translate(-38.805 -111.117)" fill="#d1e1f2"/>
        <path id="XMLID_861_" d="M155.709,145.023l-7.056-4.181a2.831,2.831,0,0,0-2.875,0l-6.795,3.92c-1.045.523-1.045,1.829,0,2.613l6.795,4.181a2.831,2.831,0,0,0,2.875,0l7.056-3.92A1.746,1.746,0,0,0,155.709,145.023Z" transform="translate(-47.517 -105.954)" fill="#d1e1f2"/>
        <path id="XMLID_860_" d="M150.109,148.423l-7.056-4.181a2.831,2.831,0,0,0-2.875,0l-6.795,3.92c-1.045.523-1.045,1.829,0,2.613l6.795,4.181a2.831,2.831,0,0,0,2.875,0l7.056-3.92C151.155,150.514,151.155,149.207,150.109,148.423Z" transform="translate(-56.552 -100.469)" fill="#d1e1f2"/>
        <path id="XMLID_859_" d="M144.209,151.723l-7.056-4.181a2.831,2.831,0,0,0-2.875,0l-6.795,3.92c-1.045.523-1.045,1.829,0,2.613l6.795,4.181a2.831,2.831,0,0,0,2.875,0l7.056-3.92C145.255,153.553,145.255,152.246,144.209,151.723Z" transform="translate(-66.071 -95.145)" fill="#d1e1f2"/>
        <path id="XMLID_858_" d="M138.509,155.023l-7.056-4.181a2.831,2.831,0,0,0-2.875,0l-6.795,3.92c-1.045.523-1.045,1.829,0,2.613l6.795,4.181a2.831,2.831,0,0,0,2.875,0l7.056-3.92A1.74,1.74,0,0,0,138.509,155.023Z" transform="translate(-75.267 -89.821)" fill="#d1e1f2"/>
        <path id="XMLID_857_" d="M132.809,158.423l-7.056-4.181a2.831,2.831,0,0,0-2.875,0l-6.795,3.92c-1.045.523-1.045,1.829,0,2.613l6.795,4.181a2.831,2.831,0,0,0,2.875,0l7.056-3.92A1.583,1.583,0,0,0,132.809,158.423Z" transform="translate(-84.463 -84.335)" fill="#d1e1f2"/>
        <path id="XMLID_856_" d="M126.609,162.123l-7.056-4.181a2.831,2.831,0,0,0-2.875,0l-6.795,3.92c-1.045.523-1.045,1.829,0,2.613l6.795,4.181a2.831,2.831,0,0,0,2.875,0l7.056-3.92C127.655,163.953,127.655,162.646,126.609,162.123Z" transform="translate(-94.465 -78.366)" fill="#d1e1f2"/>
        <path id="XMLID_855_" d="M121.009,165.123l-7.056-4.181a2.831,2.831,0,0,0-2.875,0l-6.795,3.92c-1.045.523-1.045,1.829,0,2.613l6.795,4.181a2.831,2.831,0,0,0,2.875,0l7.056-3.92A1.481,1.481,0,0,0,121.009,165.123Z" transform="translate(-103.5 -73.526)" fill="#d1e1f2"/>
      </g>
      <g id="XMLID_842_" transform="translate(114.464 189.123)">
        <path id="XMLID_853_" d="M185.009,135.023l-7.056-4.181a2.831,2.831,0,0,0-2.875,0l-6.795,3.92c-1.045.523-1.045,1.829,0,2.613l6.795,4.181a2.831,2.831,0,0,0,2.875,0l7.056-3.92A1.481,1.481,0,0,0,185.009,135.023Z" transform="translate(-15.665 -130.45)" fill="#d1e1f2"/>
        <path id="XMLID_852_" d="M179.009,138.423l-7.056-4.181a2.831,2.831,0,0,0-2.875,0l-6.795,3.92c-1.045.523-1.045,1.829,0,2.613l6.795,4.181a2.831,2.831,0,0,0,2.875,0l7.056-3.92C180.055,140.514,180.055,139.207,179.009,138.423Z" transform="translate(-25.345 -124.965)" fill="#d1e1f2"/>
        <path id="XMLID_851_" d="M173.209,141.723l-7.056-4.181a2.831,2.831,0,0,0-2.875,0l-6.795,3.92c-1.045.523-1.045,1.829,0,2.613l6.795,4.181a2.831,2.831,0,0,0,2.875,0l7.056-3.92C174.255,143.553,174.255,142.246,173.209,141.723Z" transform="translate(-34.703 -119.641)" fill="#d1e1f2"/>
        <path id="XMLID_850_" d="M167.109,145.123l-7.056-4.181a2.831,2.831,0,0,0-2.875,0l-6.795,3.92c-1.045.523-1.045,1.829,0,2.613l6.795,4.181a2.831,2.831,0,0,0,2.875,0l7.056-3.92A1.74,1.74,0,0,0,167.109,145.123Z" transform="translate(-44.544 -114.155)" fill="#d1e1f2"/>
        <path id="XMLID_849_" d="M161.609,148.323l-7.056-4.181a2.831,2.831,0,0,0-2.875,0l-6.795,3.92c-1.045.523-1.045,1.829,0,2.613l6.795,4.181a2.831,2.831,0,0,0,2.875,0l7.056-3.92C162.655,150.153,162.655,148.846,161.609,148.323Z" transform="translate(-53.417 -108.993)" fill="#d1e1f2"/>
        <path id="XMLID_848_" d="M156.109,151.723l-7.056-4.181a2.831,2.831,0,0,0-2.875,0l-6.795,3.92c-1.045.523-1.045,1.829,0,2.613l6.795,4.181a2.831,2.831,0,0,0,2.875,0l7.056-3.92C157.155,153.553,157.155,152.246,156.109,151.723Z" transform="translate(-62.291 -103.507)" fill="#d1e1f2"/>
        <path id="XMLID_847_" d="M150.209,154.923l-7.056-4.181a2.831,2.831,0,0,0-2.875,0l-6.795,3.92c-1.045.523-1.045,1.829,0,2.613l6.795,4.181a2.831,2.831,0,0,0,2.875,0l7.056-3.92A1.481,1.481,0,0,0,150.209,154.923Z" transform="translate(-71.809 -98.345)" fill="#d1e1f2"/>
        <path id="XMLID_846_" d="M144.409,158.223l-7.056-4.181a2.831,2.831,0,0,0-2.875,0l-6.795,3.92c-1.045.523-1.045,1.829,0,2.613l6.795,4.181a2.831,2.831,0,0,0,2.875,0l7.056-3.92C145.455,160.053,145.455,158.746,144.409,158.223Z" transform="translate(-81.167 -93.021)" fill="#d1e1f2"/>
        <path id="XMLID_845_" d="M138.709,161.723l-7.056-4.181a2.831,2.831,0,0,0-2.875,0l-6.795,3.92c-1.045.523-1.045,1.829,0,2.613l6.795,4.181a2.831,2.831,0,0,0,2.875,0l7.056-3.92C139.755,163.553,139.755,162.246,138.709,161.723Z" transform="translate(-90.363 -87.374)" fill="#d1e1f2"/>
        <path id="XMLID_844_" d="M132.509,165.323l-7.056-4.181a2.831,2.831,0,0,0-2.875,0l-6.795,3.92c-1.045.523-1.045,1.829,0,2.613l6.795,4.181a2.831,2.831,0,0,0,2.875,0l7.056-3.92A1.481,1.481,0,0,0,132.509,165.323Z" transform="translate(-100.365 -81.566)" fill="#d1e1f2"/>
        <path id="XMLID_843_" d="M126.909,168.423l-7.056-4.181a2.831,2.831,0,0,0-2.875,0l-6.795,3.92c-1.045.523-1.045,1.829,0,2.613l6.795,4.181a2.831,2.831,0,0,0,2.875,0l7.056-3.92C127.955,170.253,127.955,168.946,126.909,168.423Z" transform="translate(-109.4 -76.565)" fill="#d1e1f2"/>
      </g>
      <g id="XMLID_832_" transform="translate(130.144 197.486)">
        <path id="XMLID_841_" d="M191.009,138.223l-7.056-4.181a2.831,2.831,0,0,0-2.875,0l-6.795,3.92c-1.045.523-1.045,1.829,0,2.613l6.795,4.181a2.831,2.831,0,0,0,2.875,0l7.056-3.92A1.74,1.74,0,0,0,191.009,138.223Z" transform="translate(-21.665 -133.65)" fill="#d1e1f2"/>
        <path id="XMLID_840_" d="M185.009,141.723l-7.056-4.181a2.831,2.831,0,0,0-2.875,0l-6.795,3.92c-1.045.523-1.045,1.829,0,2.613l6.795,4.181a2.831,2.831,0,0,0,2.875,0l7.056-3.92C186.055,143.553,186.055,142.246,185.009,141.723Z" transform="translate(-31.345 -128.003)" fill="#d1e1f2"/>
        <path id="XMLID_839_" d="M179.209,144.923l-7.056-4.181a2.831,2.831,0,0,0-2.875,0l-6.795,3.92c-1.045.523-1.045,1.829,0,2.613l6.795,4.181a2.831,2.831,0,0,0,2.875,0l7.056-3.92C179.993,147.014,180.255,145.446,179.209,144.923Z" transform="translate(-40.703 -122.841)" fill="#d1e1f2"/>
        <path id="XMLID_838_" d="M173.009,148.323l-7.056-4.181a2.831,2.831,0,0,0-2.875,0l-6.795,3.92c-1.045.523-1.045,1.829,0,2.613l6.795,4.181a2.831,2.831,0,0,0,2.875,0l7.056-3.92C174.055,150.153,174.055,148.846,173.009,148.323Z" transform="translate(-50.705 -117.355)" fill="#d1e1f2"/>
        <path id="XMLID_837_" d="M184.856,151.823l-7.056-4.181a2.831,2.831,0,0,0-2.875,0l-35.541,20.384c-1.045.523-1.045,1.829,0,2.613l6.795,4.181a2.831,2.831,0,0,0,2.875,0l35.541-20.645C185.64,153.914,185.64,152.607,184.856,151.823Z" transform="translate(-77.971 -111.709)" fill="#d1e1f2"/>
        <path id="XMLID_836_" d="M150.409,161.423l-7.056-4.181a2.831,2.831,0,0,0-2.875,0l-6.795,3.92c-1.045.523-1.045,1.829,0,2.613l6.795,4.181a2.831,2.831,0,0,0,2.875,0l7.056-3.92A1.746,1.746,0,0,0,150.409,161.423Z" transform="translate(-87.167 -96.221)" fill="#d1e1f2"/>
        <path id="XMLID_835_" d="M144.709,164.923l-7.056-4.181a2.831,2.831,0,0,0-2.875,0l-6.795,3.92c-1.045.523-1.045,1.829,0,2.613l6.795,4.181a2.831,2.831,0,0,0,2.875,0l7.056-3.92A1.746,1.746,0,0,0,144.709,164.923Z" transform="translate(-96.363 -90.574)" fill="#d1e1f2"/>
        <path id="XMLID_834_" d="M138.509,168.623l-7.056-4.181a2.831,2.831,0,0,0-2.875,0l-6.795,3.92c-1.045.523-1.045,1.829,0,2.613l6.795,4.181a2.831,2.831,0,0,0,2.875,0l7.056-3.92C139.555,170.453,139.555,169.146,138.509,168.623Z" transform="translate(-106.365 -84.605)" fill="#d1e1f2"/>
        <path id="XMLID_833_" d="M132.909,171.623l-7.056-4.181a2.831,2.831,0,0,0-2.875,0l-6.795,3.92c-1.045.523-1.045,1.829,0,2.613l6.795,4.181a2.831,2.831,0,0,0,2.875,0l7.056-3.92C133.955,173.453,133.955,172.146,132.909,171.623Z" transform="translate(-115.4 -79.765)" fill="#d1e1f2"/>
      </g>
    </g>
    <g id="XMLID_1187_" transform="translate(360.079 251.831)">
      <g id="XMLID_1210_" transform="translate(34.594 30.523)">
        <path id="XMLID_1211_" d="M184.22,182.163a3.374,3.374,0,0,0,3.4-2.352l7.84-21.168a14.9,14.9,0,0,0-2.352-14.373l-8.1-9.931a3.53,3.53,0,0,0-5.488,4.443l8.1,9.931a8.642,8.642,0,0,1,1.307,7.579l-7.84,21.168a3.667,3.667,0,0,0,2.091,4.7C183.436,181.9,183.959,182.163,184.22,182.163Z" transform="translate(-178.68 -132.98)" fill="#3c5185"/>
      </g>
      <path id="XMLID_1209_" d="M185.715,201.479l-4.181-2.613v-1.829l-4.443-.523-9.931-5.749a3.5,3.5,0,0,1,.523-6.272h0a7.342,7.342,0,0,1,5.749.261l7.84,3.659,10.715,3.92-.261,3.92a5.657,5.657,0,0,1-5.488,5.227h-.523Z" transform="translate(-165.443 -20.114)" fill="#3c5185"/>
      <path id="XMLID_1208_" d="M187.513,199.819h-.523l-4.181-2.613v-1.829l-4.443-.523-9.931-5.749a3.486,3.486,0,0,1-1.307-4.7,3.313,3.313,0,0,0,0,5.749l9.931,5.749,4.443.523v1.829l4.181,2.613h.523a5.135,5.135,0,0,0,4.443-2.352A5.429,5.429,0,0,1,187.513,199.819Z" transform="translate(-165.411 -19.499)" fill="#48486a"/>
      <path id="XMLID_1207_" d="M192.015,197.279l-4.181-2.613v-1.829l-4.443-.523-9.931-5.749a3.5,3.5,0,0,1,.523-6.272h0a7.342,7.342,0,0,1,5.749.261l7.84,3.659,10.715,3.92-.261,3.92a5.657,5.657,0,0,1-5.488,5.227h-.523Z" transform="translate(-155.279 -26.89)" fill="#3c5185"/>
      <path id="XMLID_1206_" d="M193.552,195.519h-.261l-4.181-2.613v-1.829l-4.443-.523-9.931-5.749a3.486,3.486,0,0,1-1.307-4.7,3.313,3.313,0,0,0,0,5.749l9.931,5.749,4.443.523v1.829l4.181,2.613h.523a5.135,5.135,0,0,0,4.443-2.352A5.5,5.5,0,0,1,193.552,195.519Z" transform="translate(-155.247 -26.436)" fill="#48486a"/>
      <g id="XMLID_1204_" transform="translate(28.635 72.128)">
        <path id="XMLID_1205_" d="M185.024,241.935c-3.136,0-5.488-1.307-5.488-4.443l-3.136-83.1c0-3.136,5.749-5.488,8.624-5.488a5.52,5.52,0,0,1,5.488,5.488v83.1C190.512,240.628,188.16,241.935,185.024,241.935Z" transform="translate(-176.4 -148.9)" fill="url(#linear-gradient-3)"/>
      </g>
      <g id="XMLID_1202_" transform="translate(10.865 71.585)">
        <path id="XMLID_1203_" d="M180.053,251.939c-2.875,0-5.227-.261-5.488-3.4L169.6,199.933v-.523l4.965-45.472a5.587,5.587,0,0,1,6.011-5.227c3.136.261,13.328,2.875,13.067,6.011l-9.408,45.211,1.568,47.824c.261,3.136-2.091,3.92-5.227,4.181Z" transform="translate(-169.6 -148.692)" fill="url(#linear-gradient-4)"/>
      </g>
      <g id="XMLID_1199_" transform="translate(34.593 30.262)">
        <path id="XMLID_1201_" d="M187.618,148.612l-8.1-9.931A3.53,3.53,0,0,1,185,134.239l4.181,5.488a92.557,92.557,0,0,1-.523,12.283A4.116,4.116,0,0,0,187.618,148.612Z" transform="translate(-178.68 -132.88)" fill="#48486a" opacity="0.3"/>
        <path id="XMLID_1200_" d="M186.457,164.936a3.374,3.374,0,0,1-3.4,2.352,2.356,2.356,0,0,1-1.307-.261,3.667,3.667,0,0,1-2.091-4.7l7.579-20.123a3.17,3.17,0,0,1-.261,1.307l.261,19.077Z" transform="translate(-177.519 -117.843)" fill="#48486a" opacity="0.3"/>
      </g>
      <path id="XMLID_1198_" d="M200.715,138.206c-.784-5.227-5.749-8.885-10.453-6.272h0l-1.568.784c-13.589,8.624-16.725,19.861-16.725,32.144l.261,10.192L170.4,211.9c1.045.523,10.715-2.352,16.987-3.92,1.045-.261,3.136-9.669,3.136-9.669s1.829,8.363,2.875,8.1c5.488-1.568,6.011-1.307,7.317-3.659L199.669,161.2C199.931,161.465,202.021,147.091,200.715,138.206Z" transform="translate(-157.444 -105.539)" fill="url(#linear-gradient-5)"/>
      <path id="XMLID_1197_" d="M179.375,143.98h0a2.9,2.9,0,0,1-2.875-2.875V128.3h5.488v12.805A2.54,2.54,0,0,1,179.375,143.98Z" transform="translate(-147.603 -110.007)" fill="#f2b1b5"/>
      <path id="XMLID_1196_" d="M190.264,146.981h0c-9.147,0-16.464-3.92-16.464-13.067V123.2h16.464Z" transform="translate(-151.959 -118.235)" fill="#f2b1b5"/>
      <path id="XMLID_1195_" d="M198.93,138.548v-1.829a68.29,68.29,0,0,0,0-7.317c-.523-2.875-1.829-6.011-4.7-7.317A12.151,12.151,0,0,0,189,121.3H178.024c-1.568,0-3.4,0-4.7,1.045-2.613,1.829-1.307,5.227.261,7.056a7.683,7.683,0,0,0,3.136,2.613c1.307.523,3.136,0,3.92,1.307,1.045,1.568-1.045,7.056,1.307,7.579,1.829.523,1.568-1.307,1.829-2.352.261-.784.784-1.307,1.307-1.307.784,0,1.307.784,1.568,1.829.261,1.568-.261,3.4-.261,4.965-.261,1.568,0,3.659,1.307,4.7a2.259,2.259,0,0,0,1.568.784c1.568.523,4.7,1.307,6.272.261,2.091-1.829,3.659-3.4,3.92-6.272A32.021,32.021,0,0,1,198.93,138.548Z" transform="translate(-155.138 -121.3)" fill="#3c5185"/>
      <path id="XMLID_1194_" d="M171.361,168.231l-.261-10.192a43.72,43.72,0,0,1,2.875-16.464l3.4-4.7a3.662,3.662,0,0,1,4.965-.784c1.568,1.045,1.307,2.091.261,3.659l-7.84,12.805a12.965,12.965,0,0,0-1.307,13.328,74.044,74.044,0,0,1,4.181,9.408l2.613,7.317c1.307,1.568-4.181-.523-4.965-1.307l-4.181-6.011Z" transform="translate(-156.315 -98.455)" fill="#48486a" opacity="0.3"/>
      <circle id="XMLID_1193_" cx="4.181" cy="4.181" r="4.181" transform="translate(15.569 81.275)" fill="#f2b1b5"/>
      <circle id="XMLID_1192_" cx="1.829" cy="1.829" r="1.829" transform="translate(14.523 83.888)" fill="#f2b1b5"/>
      <g id="XMLID_1190_" transform="translate(4.876 37.175)">
        <path id="XMLID_1191_" d="M180.615,184.068a4.845,4.845,0,0,0,1.829-.523,3.4,3.4,0,0,0,1.045-4.7l-7.317-11.76A12.668,12.668,0,0,1,178,151.4l9.669-9.931a3.511,3.511,0,0,0-4.965-4.965l-9.669,9.931a19.381,19.381,0,0,0-2.613,24.3l7.317,11.76A3.279,3.279,0,0,0,180.615,184.068Z" transform="translate(-167.308 -135.525)" fill="#f2b1b5"/>
      </g>
      <path id="XMLID_1188_" d="M174.853,180.209l-4.443-8.363a20.554,20.554,0,0,1,2.875-25.349l10.192-10.192a3.511,3.511,0,0,1,4.965,4.965l-10.192,10.192a13.434,13.434,0,0,0-1.829,16.464l6.533,9.408C184.261,178.9,175.637,181.254,174.853,180.209Z" transform="translate(-162.421 -98.673)" fill="url(#linear-gradient-6)"/>
    </g>
    <path id="XMLID_144_" d="M215.274,202.567h2.091l27.7-.784a6.467,6.467,0,0,0,6.011-4.965,15.887,15.887,0,0,0-4.965-.261,8.042,8.042,0,0,0,1.568-4.965l-.784-2.613a10.649,10.649,0,0,0-4.7-1.307l-7.317.261,1.307-2.613a3,3,0,0,0-1.307-3.659c-1.307-.784-3.136-.523-3.659.784l-2.875,5.488-13.589.523a40.2,40.2,0,0,1-35.019-18.816l-9.669-15.419-3.136-10.976a20.206,20.206,0,0,0-8.885-11.76c0-.523.261-1.307.261-1.829a7.63,7.63,0,0,1,.523-2.352l.261-.261a1.973,1.973,0,0,0,1.045-1.829c.523-.523.784-1.045,1.045-1.307,1.045-1.568,1.045-3.92,1.045-6.011-.261-6.011-1.307-12.021-.784-18.032.261-4.181,2.875-9.408,1.829-13.851a13.248,13.248,0,0,0-5.227-7.317v-.784a16.492,16.492,0,0,0-2.091-6.011l-52.528,29.792a48.237,48.237,0,0,1,1.045,6.011c.523,5.227-.523,12.021-2.091,18.032a79,79,0,0,1-3.659,11.76c-1.045,2.875-2.352,5.488-3.659,8.363-4.443,11.76-3.659,25.611,2.091,38.155a14.58,14.58,0,0,0,3.659,5.227,8.906,8.906,0,0,0,5.749,1.829h1.307c2.352,27.963,7.84,62.72,9.147,69.515l4.965-2.875,13.067-7.84h0l46.256-27.7a59.03,59.03,0,0,0-2.613-8.1c-2.875-8.1-1.829-17.248-1.045-25.349A60.132,60.132,0,0,0,215.274,202.567Z" transform="translate(76.485 50.833)" fill="#3c5185" opacity="0.3"/>
    <g id="XMLID_110_" transform="translate(183.425 107.999)">
      <g id="XMLID_1242_" transform="translate(53.455)">
        <path id="XMLID_1243_" d="M141.559,82.564h-4.965V81.519a10.584,10.584,0,0,0-15.941-9.147L118.3,68.191a15.516,15.516,0,0,1,23,13.589v.784Z" transform="translate(-118.3 -66.262)" fill="#3c5185"/>
      </g>
      <g id="XMLID_1241_" transform="translate(44.326 12.08)">
        <path id="XMLID_39_" d="M118.186,92.354a41.679,41.679,0,0,1,3.136-7.056c1.829-3.92,3.659-7.579,6.795-10.715,7.317-7.84,21.952-2.352,23,8.363.523,4.443-2.875,9.931-3.659,14.373-1.307,6.011-1.307,12.544-1.829,18.555-.261,2.091-.523,4.443-1.829,6.272-.523.784-1.568,1.568-2.091,2.352a15.445,15.445,0,0,0-1.568,3.659c-1.045,3.4-1.829,7.056-2.875,10.453-1.307,4.443-2.613,9.147-6.011,12.283s-9.408,3.659-12.283,0a10.312,10.312,0,0,1-1.568-3.92,77.555,77.555,0,0,1-2.091-29.008C116.1,109.6,115.573,99.933,118.186,92.354Z" transform="translate(-114.807 -70.885)" fill="url(#linear-gradient-7)"/>
      </g>
      <g id="XMLID_1239_" transform="translate(59.905 82.336)">
        <path id="XMLID_1240_" d="M174.947,159.787a46.866,46.866,0,0,1-43.12-28.224l-10.453-23.52a7.31,7.31,0,0,1,13.328-6.011l10.453,23.52a32.344,32.344,0,0,0,31.1,19.339l26.917-.784a7.322,7.322,0,0,1,.523,14.635l-26.917.784A3.875,3.875,0,0,1,174.947,159.787Z" transform="translate(-120.768 -97.768)" fill="#f2b1b5"/>
      </g>
      <path id="XMLID_136_" d="M168.468,180.387c-1.829-10.192,2.352-22.213,4.181-31.883a16.154,16.154,0,0,0,1.568-15.419L168.99,120.28l-1.568-12.544a18.211,18.211,0,0,0-28.747-12.283l-24.827,18.293c-5.749,4.181-6.533,11.5-7.84,18.555-4.965,26.917-4.181,86.763-4.181,95.909l68.208-39.461C169.513,185.875,168.99,183,168.468,180.387Z" transform="translate(-91.493 -24.795)" fill="url(#linear-gradient-8)"/>
      <path id="XMLID_1237_" d="M135.488,150.1s11.5-17.509,0-47.824c-1.568-4.181-7.84-15.68-7.84-15.68L110.4,88.952l2.875,23.259C114.059,116.915,121.376,149.32,135.488,150.1Z" transform="translate(-77.591 -33.45)" fill="#f2b1b5"/>
      <path id="XMLID_1236_" d="M122.321,139.392c20.384-10.192,14.112-14.373,16.725-14.9,5.488-.784,5.227,1.568,15.419-3.4,4.181-2.091,6.533-6.795,6.533-11.5v3.659a13.613,13.613,0,0,1-6.533,11.5l-8.363,3.659a81.668,81.668,0,0,0-9.408,4.965l-14.373,9.669a8.036,8.036,0,0,1-12.021-7.056v-3.659A8.072,8.072,0,0,0,122.321,139.392Z" transform="translate(-77.752 3.656)" fill="#2d3d64" opacity="0.3"/>
      <path id="XMLID_1235_" d="M111.3,105.939l1.568-17.509L126.457,86.6s6.272,11.5,7.84,15.68c.523,1.568,2.352,6.795,2.875,8.363h0a26.1,26.1,0,0,1-10.976-.784l-14.9-3.92Z" transform="translate(-76.139 -33.45)" fill="#ef9ea3"/>
      <path id="XMLID_132_" d="M118.2,180.738a160.361,160.361,0,0,1,0-27.44l2.875-36.848a7.336,7.336,0,0,0-14.635-1.045l-2.875,36.848a188.975,188.975,0,0,0,0,29.792l1.307,16.725,13.851-8.1Z" transform="translate(-89.57 2.033)" fill="#f2b1b5"/>
      <path id="XMLID_1232_" d="M115.011,125.542,132,123.451c18.816-2.352,23.52-18.555,21.168-37.371h0a13.36,13.36,0,0,0-15.157-11.5L109,78.241Z" transform="translate(-79.849 -53.054)" fill="#f2b1b5"/>
      <g id="XMLID_1230_" transform="translate(14.202 107.715)">
        <path id="XMLID_1231_" d="M112.741,148.562a8.907,8.907,0,0,0,8.1-7.84l2.613-23.52a8.8,8.8,0,0,0-17.509-1.829l-2.613,23.52a8.639,8.639,0,0,0,7.84,9.669Z" transform="translate(-103.28 -107.48)" fill="url(#linear-gradient-9)"/>
      </g>
      <g id="XMLID_1229_" transform="translate(0 9.212)">
        <path id="XMLID_38_" d="M113.668,125.224c2.352-6.272,4.443-13.328,4.7-18.555.784-10.453-3.92-21.168,4.7-29.531,6.272-6.272,16.2-6.795,24.827-6.795,6.011,0,20.907-2.875,24.043,4.443a4.37,4.37,0,0,1,.261,3.136c-.261,5.488-2.091,11.237-5.749,15.157-2.613,2.613-6.011,4.181-8.363,7.056-2.875,3.4-1.829,8.1-4.181,11.76a59.3,59.3,0,0,1-10.453,12.544c-9.147,7.579-7.84,12.805-7.579,24.3,0,10.192-.523,21.952-8.363,28.485a27.77,27.77,0,0,0-2.875,2.352c-1.045,1.307-1.568,3.136-2.613,4.7a15.039,15.039,0,0,1-12.544,8.1c-2.352,0-4.965-.523-6.533-2.091a10.375,10.375,0,0,1-2.875-5.227,53.674,53.674,0,0,1,3.4-39.2l4.7-8.624A88.939,88.939,0,0,0,113.668,125.224Z" transform="translate(-97.845 -69.787)" fill="url(#linear-gradient-10)"/>
      </g>
      <g id="XMLID_1228_" transform="translate(9.028 9.178)">
        <path id="XMLID_40_" d="M166.372,74.807c-2.091-4.965-9.147-5.227-15.68-4.965,4.965.261,9.669,1.307,11.237,4.965a4.371,4.371,0,0,1,.261,3.136c-.261,5.488-2.091,11.237-5.749,15.157-2.613,2.613-6.011,4.181-8.363,7.056-2.875,3.4-1.829,8.1-4.181,11.76a59.3,59.3,0,0,1-10.453,12.544c-9.147,7.579-7.84,12.805-7.579,24.3,0,10.192-.523,21.952-8.363,28.485a27.769,27.769,0,0,0-2.875,2.352c-1.045,1.307-1.568,3.136-2.613,4.7a14.515,14.515,0,0,1-10.715,7.84,7.234,7.234,0,0,0,2.352.261,15.039,15.039,0,0,0,12.544-8.1c.784-1.568,1.307-3.4,2.613-4.7a12.573,12.573,0,0,1,2.875-2.352c7.84-6.533,8.363-18.032,8.363-28.485,0-11.5-1.568-16.987,7.579-24.3,4.181-3.4,7.317-7.84,10.453-12.544,2.352-3.659,1.568-8.363,4.181-11.76,2.352-2.875,6.011-4.443,8.363-7.056,3.92-3.92,5.488-9.669,5.749-15.157A3.332,3.332,0,0,0,166.372,74.807Z" transform="translate(-101.3 -69.774)" fill="#ffcd39"/>
      </g>
      <g id="XMLID_1226_" transform="translate(34.9 1.928)">
        <path id="XMLID_1227_" d="M116.165,120.312H111.2V98.36A35.924,35.924,0,0,1,129.493,67l2.352,4.181A30.992,30.992,0,0,0,115.9,98.36v21.952Z" transform="translate(-111.2 -67)" fill="#3c5185"/>
      </g>
      <g id="XMLID_1224_" transform="translate(43.263 59.683)">
        <path id="XMLID_1225_" d="M130.6,98.769a7.375,7.375,0,0,1-3.92-1.045L114.4,90.668l.784-1.568,12.283,7.056a5.662,5.662,0,0,0,5.749,0l4.965-2.875.784,1.568L134,97.724A4.819,4.819,0,0,1,130.6,98.769Z" transform="translate(-114.4 -89.1)" fill="#3c5185"/>
      </g>
      <g id="XMLID_1219_" transform="translate(27.583 35.618)">
        <path id="XMLID_1223_" d="M118.331,81.22c-5.488-3.136-9.931-.523-9.931,5.749s4.443,14.112,9.931,17.248,9.931.523,9.931-5.749S123.819,84.356,118.331,81.22Z" transform="translate(-108.4 -79.892)" fill="#3c5185"/>
        <path id="XMLID_1222_" d="M117.2,81.188c-3.4-1.829-6.272-1.568-8.1,0a6.863,6.863,0,0,1,5.227,1.307c5.488,3.136,9.931,10.976,9.931,17.248a7.7,7.7,0,0,1-2.091,5.749c2.875-.523,4.7-2.875,4.7-7.056C127.132,92.164,122.689,84.324,117.2,81.188Z" transform="translate(-107.271 -79.859)" fill="url(#linear-gradient-11)"/>
        <path id="XMLID_1221_" d="M115.088,83.377c-3.136-1.829-5.488-.261-5.488,3.136a12.423,12.423,0,0,0,5.488,9.669c3.136,1.829,5.488.261,5.488-3.136C120.576,89.388,118.224,84.945,115.088,83.377Z" transform="translate(-106.464 -75.515)" fill="#4a65a3"/>
        <path id="XMLID_1220_" d="M114.443,83.384c-1.829-1.045-3.4-1.045-4.443,0a3.276,3.276,0,0,1,2.875.784,12.031,12.031,0,0,1,5.488,9.669,4.957,4.957,0,0,1-1.045,3.136c1.568-.261,2.613-1.568,2.613-3.92C119.931,89.395,117.579,84.952,114.443,83.384Z" transform="translate(-105.819 -75.522)" fill="url(#linear-gradient-12)"/>
      </g>
      <g id="XMLID_1217_" transform="translate(63.792 61.396)">
        <path id="XMLID_1218_" d="M124.724,96.666a2.665,2.665,0,0,1-2.091-1.307,2.544,2.544,0,0,1,.784-3.4l3.136-1.829a2.465,2.465,0,1,1,2.613,4.181l-3.136,1.829A1.439,1.439,0,0,1,124.724,96.666Z" transform="translate(-122.256 -89.756)" fill="#3c5185"/>
      </g>
      <path id="XMLID_1213_" d="M147.656,126.116h0a2.615,2.615,0,0,1-.784-3.659l4.965-8.1a2.615,2.615,0,0,1,3.659-.784h0a2.615,2.615,0,0,1,.784,3.659l-4.965,8.1A2.813,2.813,0,0,1,147.656,126.116Z" transform="translate(-19.46 9.353)" fill="#f2b1b5"/>
    </g>
    <g id="XMLID_89_" transform="translate(291.488 161.149)">
      <path id="XMLID_1081_" d="M148.919,112.762c10.192-5.749,26.656-5.749,36.848,0s10.192,15.419,0,21.168-26.656,5.749-36.848,0S138.727,118.511,148.919,112.762Z" transform="translate(-135.842 -51.349)" fill="url(#radial-gradient)"/>
      <g id="XMLID_1066_">
        <path id="XMLID_1080_" d="M163.141,122.373l-1.045.784h-9.147l-1.045-.784a14.463,14.463,0,0,1-4.7-10.453V108h20.907v3.659A13.921,13.921,0,0,1,163.141,122.373Z" transform="translate(-126.283 -52.075)" fill="#3c5185"/>
        <path id="XMLID_1079_" d="M155.733,116.836h-3.4A3.178,3.178,0,0,1,149.2,113.7h9.408A2.693,2.693,0,0,1,155.733,116.836Z" transform="translate(-123.056 -42.879)" fill="#3c5185"/>
        <path id="XMLID_1078_" d="M164.971,107.489c-4.181-2.352-10.715-2.352-14.635,0-4.181,2.352-4.181,6.272,0,8.624s10.715,2.352,14.635,0C169.152,113.5,169.152,109.58,164.971,107.489Z" transform="translate(-126.283 -55.745)" fill="#2842a2"/>
        <path id="XMLID_1077_" d="M162.977,93A19.184,19.184,0,0,0,143.9,112.077a18.781,18.781,0,0,0,8.624,15.941v4.443h0c0,1.568,1.045,2.875,3.136,4.181,3.92,2.352,10.715,2.352,14.635,0a6.072,6.072,0,0,0,3.136-4.181h0v-4.443a19.122,19.122,0,0,0,8.624-15.941A18.853,18.853,0,0,0,162.977,93Z" transform="translate(-131.607 -76.275)" opacity="0.83" fill="url(#linear-gradient-13)"/>
        <path id="XMLID_1076_" d="M149.843,112.071a12.547,12.547,0,0,1,12.544-12.544c6.272,0,6.011-5.227-2.352-5.227A14.611,14.611,0,0,0,145.4,108.935C145.4,114.161,149.843,116.513,149.843,112.071Z" transform="translate(-129.187 -74.177)" fill="#fff"/>
        <path id="XMLID_1075_" d="M164.971,112.881c-3.92,2.352-10.715,2.352-14.635,0-1.829-1.045-3.136-2.613-3.136-4.181v1.307c0,1.568,1.045,2.875,3.136,4.181,3.92,2.352,10.715,2.352,14.635,0a6.072,6.072,0,0,0,3.136-4.181h0V108.7h0C168.107,110.268,167.061,111.575,164.971,112.881Z" transform="translate(-126.283 -50.945)" fill="#6e84b5" opacity="0.49"/>
        <path id="XMLID_1074_" d="M164.648,113.252c-3.92,2.352-10.715,2.352-14.635,0A11.771,11.771,0,0,1,147.4,110.9a7.826,7.826,0,0,0,1.045,2.613c.523.261.784.784,1.568,1.045,3.92,2.352,10.715,2.352,14.635,0,.523-.261.784-.523,1.307-.784a14.008,14.008,0,0,0,1.307-2.875A4.674,4.674,0,0,1,164.648,113.252Z" transform="translate(-125.96 -47.396)" fill="#6e84b5" opacity="0.49"/>
        <path id="XMLID_91_" d="M170.566,101.757h0A1.686,1.686,0,0,1,169,100.189V88.168a1.686,1.686,0,0,1,1.568-1.568h0a1.686,1.686,0,0,1,1.568,1.568v12.021A1.686,1.686,0,0,1,170.566,101.757Zm12.805,2.091,6.011-10.192a1.524,1.524,0,1,0-2.613-1.568l-6.011,10.192a1.412,1.412,0,0,0,.523,2.091.96.96,0,0,0,.784.261A1.437,1.437,0,0,0,183.372,103.848Zm7.84,8.885,10.453-6.011a1.524,1.524,0,1,0-1.568-2.613l-10.453,6.011a1.412,1.412,0,0,0-.523,2.091,1.437,1.437,0,0,0,1.307.784A.96.96,0,0,0,191.212,112.733Zm-38.939-.523a1.412,1.412,0,0,0-.523-2.091l-10.192-6.011a1.524,1.524,0,0,0-1.568,2.613l10.192,6.011a.96.96,0,0,0,.784.261A1.437,1.437,0,0,0,152.273,112.211Zm7.84-7.84a1.412,1.412,0,0,0,.523-2.091l-5.749-10.453a1.524,1.524,0,0,0-2.613,1.568l5.749,10.453a1.437,1.437,0,0,0,1.307.784A.96.96,0,0,0,160.113,104.371Z" transform="translate(-139.196 -86.6)" fill="url(#linear-gradient-14)"/>
      </g>
    </g>
    <g id="XMLID_75_" transform="translate(399.952 180.051)">
      <g id="XMLID_85_" transform="translate(0 0)">
        <path id="XMLID_87_" d="M234.012,112.824c0,16.987-12.021,37.632-26.656,45.995-6.272,3.659-11.76,4.443-16.464,2.875l-6.011,2.613c-1.045.523-2.091-.523-2.091-1.568l1.045-6.533c-2.091-3.136-3.136-7.579-3.136-12.805,0-16.987,12.021-37.632,26.656-45.995S234.012,95.837,234.012,112.824Z" transform="translate(-180.7 -93.833)" fill="url(#linear-gradient-15)"/>
        <path id="XMLID_86_" d="M187.756,159c-2.091-3.136-3.136-7.579-3.136-12.805,0-16.987,12.021-37.632,26.656-45.995,7.056-3.92,13.328-4.443,18.032-2.091-4.7-5.227-12.805-5.749-21.952-.784C192.721,105.69,180.7,126.6,180.7,143.322c0,5.227,1.045,9.669,3.136,12.805l-1.045,6.533a1.5,1.5,0,0,0,2.091,1.568l2.091-.784Z" transform="translate(-180.7 -93.755)" fill="url(#linear-gradient-16)"/>
      </g>
      <g id="XMLID_76_" transform="translate(23.259 20.755)">
        <g id="XMLID_70_">
          <path id="XMLID_71_" d="M196.395,122.224l-3.92,2.091v-3.136c0-1.045.261-2.091.261-2.613a20.917,20.917,0,0,1,1.307-2.875l1.829-3.92a4.923,4.923,0,0,0,.523-2.091,3.875,3.875,0,0,0-.261-1.829c-.261-.261-.523-.523-1.045-.261a2.4,2.4,0,0,0-1.045,1.568,7.732,7.732,0,0,0-.523,2.613l-3.92,2.352a20.044,20.044,0,0,1,2.091-7.317,9.491,9.491,0,0,1,3.92-4.443c1.568-.784,2.875-.784,3.659,0,1.045.784,1.307,2.352,1.307,4.965,0,1.045-.261,1.829-.261,2.613a2.841,2.841,0,0,0-.261,1.307,4.416,4.416,0,0,1-.523,1.307l-.523,1.045c-.523.784-.784,1.568-1.307,2.352a12.744,12.744,0,0,1-.784,1.829,3.875,3.875,0,0,0-.261,1.829Zm-3.659,9.669c-.523-.523-.523-1.045-.523-2.091a5.957,5.957,0,0,1,.784-2.875,3.764,3.764,0,0,1,1.568-1.829,1.231,1.231,0,0,1,1.568.261c.523.523.523,1.045.523,2.091a5.268,5.268,0,0,1-.784,2.875,3.764,3.764,0,0,1-1.568,1.829C193.52,132.416,193,132.416,192.736,131.894Z" transform="translate(-189.6 -101.775)" fill="#fff"/>
        </g>
      </g>
    </g>
    <g id="XMLID_68_" transform="translate(137.051 40.392)">
      <path id="XMLID_1091_" d="M174.964,44.588v43.12a7.451,7.451,0,0,1-3.659,6.533l-6.795,4.443-6.533,14.635a3.779,3.779,0,0,1-4.965,2.352l-8.1-5.488L86.372,143.894a4.139,4.139,0,0,1-6.272-3.659v-43.9A7.451,7.451,0,0,1,83.759,89.8l84.933-48.869A4.275,4.275,0,0,1,174.964,44.588Z" transform="translate(-80.1 -40.385)" fill="#7ea7df"/>
      <g id="XMLID_1089_">
        <path id="XMLID_1090_" d="M82.975,141.81v-43.9a7.451,7.451,0,0,1,3.659-6.533L171.567,42.5a3.884,3.884,0,0,1,2.352-.523,4.053,4.053,0,0,0-5.227-1.045L83.759,89.805A7.451,7.451,0,0,0,80.1,96.338v43.9a4.128,4.128,0,0,0,4.181,4.181A3.629,3.629,0,0,1,82.975,141.81Z" transform="translate(-80.1 -40.392)" fill="url(#linear-gradient-17)"/>
      </g>
      <path id="XMLID_1088_" d="M83.7,90.772,163.145,45.3v4.965L83.7,96Z" transform="translate(-74.292 -32.473)" fill="#fff"/>
      <path id="XMLID_1087_" d="M83.7,96.033,163.145,50.3v4.965L83.7,101Z" transform="translate(-74.292 -24.407)" fill="#fff"/>
      <path id="XMLID_1086_" d="M83.7,89.095,129.172,62.7v5.227L83.7,94.321Z" transform="translate(-74.292 -4.402)" fill="#fff"/>
    </g>
    <g id="XMLID_53_" transform="translate(284.377 432.935)">
      <path id="XMLID_13_" d="M146.471,200.309c13.328-7.579,35.28-7.579,48.608,0s13.328,20.384,0,27.963-35.28,7.579-48.608,0S133.143,207.888,146.471,200.309Z" transform="translate(-136.475 -184.106)" fill="url(#radial-gradient-2)"/>
      <g id="XMLID_54_" transform="translate(11.041)">
        <path id="XMLID_64_" d="M197.148,205.283c0-.784-1.045-1.307-2.091-1.307h-4.7c-.784,0-2.091.784-2.352.523-.261-.523-.261-.784.261-1.307l3.4-1.829c.784-.523-4.7-.261-5.488-.784V196.4a3.332,3.332,0,0,0-3.136,0l-3.4,1.829a2.777,2.777,0,0,1-2.091.261c-.523,0-1.045-.261-1.568-.261-.784-.261-1.045-.523-1.045-1.045v-2.875c0-.784-1.045-1.307-2.091-1.307H165c-1.307,0-2.091.523-2.091,1.307v2.613c0,.523-.523.784-1.307,1.045a11.318,11.318,0,0,0-1.307.261,2.777,2.777,0,0,1-2.091-.261l-3.4-1.829a3.332,3.332,0,0,0-3.136,0l-.523,4.443c-.784.523-6.011,0-4.965.523l3.4,1.829c.523.261.784.784.261,1.045-.261.261-1.568-.523-2.352-.523h-4.7c-1.307,0-2.091.523-2.091,1.307v6.533c0,.784,1.045,1.307,2.091,1.307h2.875v5.488h0c0,.261.261.523.523.784l5.488,3.136a2.3,2.3,0,0,0,1.829.261h0c.523,0,.784-.261,1.045-.261l3.4-1.829a2.777,2.777,0,0,1,2.091-.261c.523,0,1.045.261,1.568.261.784.261,1.045.523,1.045,1.045V224.1c0,.784,1.045,1.307,2.091,1.307h7.579c1.307,0,2.091-.523,2.091-1.307v-2.613c0-.523.523-.784,1.307-1.045.523,0,.784-.261,1.307-.261a2.777,2.777,0,0,1,2.091.261l3.4,1.829a1.571,1.571,0,0,0,1.045.261h0a3.875,3.875,0,0,0,1.829-.261l5.488-3.136c.261-.261.523-.523.523-.784h0v-5.488h2.613c1.307,0,2.091-.523,2.091-1.307Zm-17.509,5.488c-1.307,3.92-8.363,6.011-14.635,4.7-4.7-1.045-7.84-4.181-6.795-7.056,1.307-3.92,8.363-6.011,14.635-4.7C177.809,204.76,180.684,207.9,179.639,210.771Z" transform="translate(-140.7 -186.728)" fill="#3c5185"/>
        <path id="XMLID_63_" d="M189.117,199.417v-3.4h-4.965l-1.045-.523a3.332,3.332,0,0,0-3.136,0l-1.045.523h-6.795v-2.613c0-.784-1.045-1.307-2.091-1.307h-8.1c-1.307,0-2.091.523-2.091,1.307v2.613h-7.056l-1.045-.523a3.332,3.332,0,0,0-3.136,0l-1.045.523H142.6v3.4a1.981,1.981,0,0,0,.523,1.045l3.4,1.829H185.2l3.4-1.829c.261-.523.523-.784.523-1.045Z" transform="translate(-137.635 -188.18)" fill="#3c5185"/>
        <g id="XMLID_3_" transform="translate(0.261)">
          <path id="XMLID_5_" d="M188.624,210.723h6.011c1.307,0,2.091-.523,2.091-1.307v-4.443c0-.784-1.045-1.307-2.091-1.307h-4.7a2.035,2.035,0,0,1-1.829-.784c-.261-.261-.261-.523-.523-.784-.261-.523-.261-.784.261-1.307l3.4-1.829a1,1,0,0,0,0-1.829L185.749,194a3.332,3.332,0,0,0-3.136,0l-3.4,1.829a2.777,2.777,0,0,1-2.091.261c-.523,0-1.045-.261-1.568-.261-.784-.261-1.045-.523-1.045-1.045v-2.875c0-.784-1.045-1.307-2.091-1.307h-7.579c-1.307,0-2.091.523-2.091,1.307v2.613c0,.523-.523.784-1.307,1.045a11.317,11.317,0,0,0-1.307.261,2.777,2.777,0,0,1-2.091-.261l-3.4-1.829a3.332,3.332,0,0,0-3.136,0l-5.488,3.136a1,1,0,0,0,0,1.829l3.4,1.829c.523.261.784.784.261,1.045-.261.261-.523.523-.523.784a1.863,1.863,0,0,1-1.568.784h-4.7c-1.307,0-2.091.523-2.091,1.307v4.443c0,.784,1.045,1.307,2.091,1.307h4.7a2.035,2.035,0,0,1,1.829.784c.261.261.261.523.523.784.261.523.261.784-.261,1.307l-3.4,1.829a1,1,0,0,0,0,1.829l5.488,3.136a3.332,3.332,0,0,0,3.136,0l3.4-1.829a2.777,2.777,0,0,1,2.091-.261c.523,0,1.045.261,1.568.261.784.261,1.045.523,1.045,1.045v2.875c0,.784,1.045,1.307,2.091,1.307h7.579c1.307,0,2.091-.523,2.091-1.307v-2.613c0-.523.523-.784,1.307-1.045.523,0,.784-.261,1.307-.261a2.777,2.777,0,0,1,2.091.261l3.4,1.829a3.332,3.332,0,0,0,3.136,0l5.488-3.136a1,1,0,0,0,0-1.829l-3.4-1.829c-.523-.261-.784-.784-.261-1.045A7.718,7.718,0,0,1,188.624,210.723Zm-30.576-4.443c1.307-3.92,8.363-6.011,14.635-4.7,4.7,1.045,7.84,4.181,6.795,7.056-1.307,3.92-8.363,6.011-14.635,4.7C160.139,212.029,157,209.155,158.048,206.28Z" transform="translate(-140.8 -190.6)" fill="#4a65a3"/>
        </g>
      </g>
    </g>
    <g id="XMLID_14_" transform="translate(132.869 395.303)">
      <g id="XMLID_25_" transform="translate(0 4.443)">
        <path id="XMLID_33_" d="M139.073,245.513l44.688-25.872v-.784L119.212,184.1,85.5,214.415Z" transform="translate(-67.207 -167.897)" fill="#63749d"/>
        <path id="XMLID_32_" d="M139.073,245.052l44.688-25.872L119.212,183.9,85.5,213.953Z" transform="translate(-67.207 -168.22)" fill="#3c5185"/>
        <path id="XMLID_31_" d="M138.373,245.336l44.688-25.872.261-8.1L118.512,183.4,84.8,213.715Z" transform="translate(-68.336 -169.027)" fill="#f1f2f2"/>
        <path id="XMLID_30_" d="M123.449,178.1l71.605,40.768v.784l-44.688,25.611L78.5,203.972Z" transform="translate(-78.5 -177.577)" fill="#63749d"/>
        <path id="XMLID_29_" d="M123.449,177.9l71.605,41.291-44.688,25.872L78.5,203.772Z" transform="translate(-78.5 -177.9)" fill="#3c5185"/>
        <path id="XMLID_28_" d="M121.564,181.6l20.123,11.5-36.064,20.907L85.5,202.245Z" transform="translate(-67.207 -171.931)" fill="#fff"/>
        <path id="XMLID_27_" d="M78.8,187.9v10.192l71.083,41.291.523-.523v-9.669Z" transform="translate(-78.016 -161.767)" fill="#63749d"/>
        <path id="XMLID_26_" d="M78.5,187.8v9.931l71.867,41.813V229.091Z" transform="translate(-78.5 -161.928)" fill="#3c5185"/>
      </g>
      <g id="XMLID_15_">
        <path id="XMLID_24_" d="M129.349,232.983l37.632-21.691v-.523L112.624,181.5,84.4,206.849Z" transform="translate(-68.981 -167.649)" fill="#e3edf7"/>
        <path id="XMLID_23_" d="M129.349,232.783l37.632-21.691L112.624,181.3,84.4,206.649Z" transform="translate(-68.981 -167.972)" fill="#d1e1f2"/>
        <path id="XMLID_22_" d="M128.749,232.905l37.632-21.691.261-7.056L112.285,180.9,83.8,206.249Z" transform="translate(-69.949 -168.617)" fill="#fff"/>
        <path id="XMLID_21_" d="M116.132,176.4,176.5,210.635v.523l-37.632,21.952L78.5,198.352Z" transform="translate(-78.5 -175.877)" fill="#e3edf7"/>
        <path id="XMLID_20_" d="M116.132,176.2,176.5,210.957l-37.632,21.952L78.5,198.152Z" transform="translate(-78.5 -176.2)" fill="#d1e1f2"/>
        <path id="XMLID_19_" d="M114.453,179.4l16.987,9.669-30.315,17.509L84.4,196.648Z" transform="translate(-68.981 -171.037)" fill="#fff"/>
        <path id="XMLID_18_" d="M78.7,184.7v8.363l59.845,34.757.523-.261v-8.1Z" transform="translate(-78.177 -162.487)" fill="#e3edf7"/>
        <path id="XMLID_17_" d="M78.5,184.6v8.363l60.368,35.019v-8.624Z" transform="translate(-78.5 -162.648)" fill="#dae7f5"/>
      </g>
    </g>
  </g>
</svg>
